<svg xmlns="http://www.w3.org/2000/svg" width="28.673" height="20.371" viewBox="0 0 28.673 20.371">
  <defs>
    <style>
      .cls-1 {
        stroke: rgba(0,0,0,0);
        stroke-miterlimit: 10;
      }
    </style>
  </defs>
  <path id="icon-youtube" class="cls-1" d="M13.837,19.371c-.087,0-8.679-.007-10.812-.578A3.464,3.464,0,0,1,.578,16.347,36.238,36.238,0,0,1,0,9.685a36.224,36.224,0,0,1,.578-6.66A3.467,3.467,0,0,1,3.025.578C5.158.007,13.75,0,13.837,0s8.678.007,10.811.578a3.467,3.467,0,0,1,2.447,2.447,36.224,36.224,0,0,1,.578,6.66,36.238,36.238,0,0,1-.578,6.661,3.464,3.464,0,0,1-2.447,2.446C22.514,19.364,13.923,19.371,13.837,19.371ZM11.069,5.535v8.3l7.189-4.151Z" transform="translate(0.5 0.5)"/>
</svg>
