<svg xmlns="http://www.w3.org/2000/svg" width="27.709" height="22.86" viewBox="0 0 27.709 22.86">
  <path id="icon-twitter" d="M83.714,121.271c10.457,0,16.175-8.794,16.175-16.419,0-.25-.005-.5-.016-.746a11.666,11.666,0,0,0,2.836-2.988,11.217,11.217,0,0,1-3.265.908,5.776,5.776,0,0,0,2.5-3.192,11.29,11.29,0,0,1-3.61,1.4,5.64,5.64,0,0,0-4.15-1.823,5.729,5.729,0,0,0-5.686,5.77,5.85,5.85,0,0,0,.147,1.316,16.062,16.062,0,0,1-11.718-6.029,5.833,5.833,0,0,0,1.76,7.7,5.579,5.579,0,0,1-2.575-.722c0,.024,0,.048,0,.074a5.752,5.752,0,0,0,4.561,5.658,5.594,5.594,0,0,1-2.567.1,5.7,5.7,0,0,0,5.311,4.008A11.356,11.356,0,0,1,75,118.679a15.921,15.921,0,0,0,8.714,2.592" transform="translate(-75 -98.411)"/>
</svg>
