<svg xmlns="http://www.w3.org/2000/svg" width="25.532" height="25.872" viewBox="0 0 25.532 25.872">
  <defs>
    <style>
      .cls-1 {
        stroke: rgba(0,0,0,0);
        stroke-miterlimit: 10;
      }
    </style>
  </defs>
  <path id="icon-instagam" class="cls-1" d="M7.173,24.872A7.231,7.231,0,0,1,0,17.6V7.272A7.231,7.231,0,0,1,7.173,0H17.359a7.231,7.231,0,0,1,7.173,7.272V17.6a7.231,7.231,0,0,1-7.173,7.272ZM2.287,7.272V17.6a4.926,4.926,0,0,0,4.886,4.954H17.359A4.926,4.926,0,0,0,22.245,17.6V7.272a4.926,4.926,0,0,0-4.885-4.954H7.173A4.926,4.926,0,0,0,2.287,7.272Zm3.638,5.164a6.342,6.342,0,1,1,6.341,6.429A6.393,6.393,0,0,1,5.925,12.436Zm2.287,0a4.054,4.054,0,1,0,4.053-4.111A4.086,4.086,0,0,0,8.212,12.436ZM17.292,5.8a1.529,1.529,0,1,1,1.528,1.55A1.539,1.539,0,0,1,17.292,5.8Z" transform="translate(0.5 0.5)"/>
</svg>
