<svg xmlns="http://www.w3.org/2000/svg" width="28.828" height="29.084" viewBox="0 0 28.828 29.084">
  <defs>
    <style>
      .cls-1 {
        stroke: rgba(0,0,0,0);
        stroke-miterlimit: 10;
      }
    </style>
  </defs>
  <path id="icon-facebook" class="cls-1" d="M11.74,28h0a13.879,13.879,0,0,1-8.363-4.717,14.212,14.212,0,0,1,.7-19.157,13.795,13.795,0,0,1,19.677,0,14.212,14.212,0,0,1,.7,19.157A13.872,13.872,0,0,1,16.09,28V18.157H19.33l.617-4.072H16.088V11.417a2.016,2.016,0,0,1,2.267-2.173H20.11V5.777A21.315,21.315,0,0,0,17,5.5c-3.291,0-5.256,2.049-5.256,5.48v3.1H8.207v4.072H11.74V28Z" transform="translate(0.5 0.5)"/>
</svg>
