<svg xmlns="http://www.w3.org/2000/svg" width="91" height="40" viewBox="0 0 91 40">
  <g id="グループ_126" data-name="グループ 126" transform="translate(-480 -692)">
    <rect id="長方形_65" data-name="長方形 65" width="91" height="40" transform="translate(480 692)" fill="#dc4f5a"/>
    <text id="Pocket" transform="translate(540.604 716)" fill="#fff" font-size="10" font-family="YuGo-Bold, YuGothic" font-weight="700"><tspan x="-16.78" y="0">Pocket</tspan></text>
    <path id="icon-share-pocket" d="M71.909,101.591h-17.5A2.037,2.037,0,0,0,52.33,103.6v6.476a10.793,10.793,0,0,0,21.586,0V103.6A2,2,0,0,0,71.909,101.591ZM69.3,109.619l-5.15,4.847a1.348,1.348,0,0,1-.985.417,1.454,1.454,0,0,1-1.06-.417l-5.075-4.847a1.532,1.532,0,0,1,0-2.121,1.486,1.486,0,0,1,2.083,0l4.052,3.9,4.128-3.9a1.4,1.4,0,0,1,2.007,0A1.612,1.612,0,0,1,69.3,109.619Z" transform="translate(440.67 600.409)" fill="#fff"/>
  </g>
</svg>
