<svg xmlns="http://www.w3.org/2000/svg" width="63.347" height="61.082" viewBox="0 0 63.347 61.082">
  <g id="グループ_4" data-name="グループ 4" transform="translate(-888.228 -740.236)" opacity="0.2">
    <g id="グループ_23" data-name="グループ 23" transform="matrix(0.616, -0.788, 0.788, 0.616, 922.538, 790.746)">
      <path id="パス_1" data-name="パス 1" d="M7.714,12.288C3.349,12.858-.3,12.87.02,8.181.186,5.768,2.755,4.295,3.983,2.957,5.456,1.35,5.733.109,7.824,0c2.04-.1,3.336,2.439,4.771,4.259,1.522,1.931,3.116,2.868,2.542,5.651C14.627,12.388,12.836,13.105,7.714,12.288Z" transform="translate(3.613 9.186)" fill="#0d96a0"/>
      <path id="パス_2" data-name="パス 2" d="M2.948.006C5.691.327,7.21,9.13,2.158,7.781-1.6,6.775.129-.242,2.948.006Z" transform="translate(5.007 0.123)" fill="#0d96a0"/>
      <path id="パス_3" data-name="パス 3" d="M2.769.014c2.755.159,4.68,8.852-.429,7.809C-1.461,7.042-.13-.365,2.769.014Z" transform="translate(0 6.162)" fill="#0d96a0"/>
      <path id="パス_4" data-name="パス 4" d="M1.913.116C-.751.951-1.056,9.925,3.745,7.641,7.32,5.94,4.549-.976,1.913.116Z" transform="translate(11.77 0)" fill="#0d96a0"/>
      <path id="パス_5" data-name="パス 5" d="M3.375.007C.627-.263-2.3,7.035,2.773,7.8,6.6,8.376,6.117.056,3.375.007Z" transform="translate(16.687 6.438)" fill="#0d96a0"/>
    </g>
    <g id="グループ_25" data-name="グループ 25" transform="matrix(0.616, -0.788, 0.788, 0.616, 885.048, 759.814)">
      <path id="パス_1-2" data-name="パス 1" d="M7.714,12.288C3.349,12.858-.3,12.87.02,8.181.186,5.768,2.755,4.295,3.983,2.957,5.456,1.35,5.733.109,7.824,0c2.04-.1,3.336,2.439,4.771,4.259,1.522,1.931,3.116,2.868,2.542,5.651C14.627,12.388,12.836,13.105,7.714,12.288Z" transform="translate(3.613 9.186)" fill="#0d96a0"/>
      <path id="パス_2-2" data-name="パス 2" d="M2.948.006C5.691.327,7.21,9.13,2.158,7.781-1.6,6.775.129-.242,2.948.006Z" transform="translate(5.007 0.123)" fill="#0d96a0"/>
      <path id="パス_3-2" data-name="パス 3" d="M2.769.014c2.755.159,4.68,8.852-.429,7.809C-1.461,7.042-.13-.365,2.769.014Z" transform="translate(0 6.162)" fill="#0d96a0"/>
      <path id="パス_4-2" data-name="パス 4" d="M1.913.116C-.751.951-1.056,9.925,3.745,7.641,7.32,5.94,4.549-.976,1.913.116Z" transform="translate(11.77 0)" fill="#0d96a0"/>
      <path id="パス_5-2" data-name="パス 5" d="M3.375.007C.627-.263-2.3,7.035,2.773,7.8,6.6,8.376,6.117.056,3.375.007Z" transform="translate(16.687 6.438)" fill="#0d96a0"/>
    </g>
    <g id="グループ_24" data-name="グループ 24" transform="translate(926.56 744.401) rotate(-14)">
      <path id="パス_1-3" data-name="パス 1" d="M7.714,12.288C3.349,12.858-.3,12.87.02,8.181.186,5.768,2.755,4.295,3.983,2.957,5.456,1.35,5.733.109,7.824,0c2.04-.1,3.336,2.439,4.771,4.259,1.522,1.931,3.116,2.868,2.542,5.651C14.627,12.388,12.836,13.105,7.714,12.288Z" transform="translate(3.613 9.186)" fill="#0d96a0"/>
      <path id="パス_2-3" data-name="パス 2" d="M2.948.006C5.691.327,7.21,9.13,2.158,7.781-1.6,6.775.129-.242,2.948.006Z" transform="translate(5.007 0.123)" fill="#0d96a0"/>
      <path id="パス_3-3" data-name="パス 3" d="M2.769.014c2.755.159,4.68,8.852-.429,7.809C-1.461,7.042-.13-.365,2.769.014Z" transform="translate(0 6.162)" fill="#0d96a0"/>
      <path id="パス_4-3" data-name="パス 4" d="M1.913.116C-.751.951-1.056,9.925,3.745,7.641,7.32,5.94,4.549-.976,1.913.116Z" transform="translate(11.77 0)" fill="#0d96a0"/>
      <path id="パス_5-3" data-name="パス 5" d="M3.375.007C.627-.263-2.3,7.035,2.773,7.8,6.6,8.376,6.117.056,3.375.007Z" transform="translate(16.687 6.438)" fill="#0d96a0"/>
    </g>
  </g>
</svg>
